<svg xmlns="http://www.w3.org/2000/svg" width="340" height="340" viewBox="0 0 340 340">
  <g id="Group_8" data-name="Group 8" transform="translate(-147.544 -787.544)" opacity="0.889">
    <g id="Group_1" data-name="Group 1" transform="translate(147.888 787.888)">
      <path id="Polygon_1" data-name="Polygon 1" d="M192.381,0,187.16,105.959l48.458-94.374-32.468,101,71.232-78.616-57.5,89.153,89.153-57.5L227.417,136.85l101-32.468L234.041,152.84,340,147.619,236.3,170,340,192.381,234.041,187.16l94.374,48.458-101-32.468,78.616,71.232-89.153-57.5,57.5,89.153L203.15,227.417l32.468,101L187.16,234.041,192.381,340,170,236.3,147.619,340l5.221-105.959-48.458,94.374,32.467-101L65.618,306.034l57.5-89.153-89.153,57.5,78.616-71.232-101,32.468,94.374-48.458L0,192.381,103.7,170,0,147.619l105.959,5.221L11.585,104.383l101,32.467L33.966,65.618l89.153,57.5-57.5-89.153,71.233,78.616-32.468-101,48.458,94.374L147.619,0,170,103.7Z" transform="translate(-0.344 -0.344)" fill="#fbd62b"/>
      <g id="Ellipse_2" data-name="Ellipse 2" transform="translate(126.657 129.656)" fill="none" stroke="#fff" stroke-width="12">
        <circle cx="41.5" cy="41.5" r="41.5" stroke="none"/>
        <circle cx="41.5" cy="41.5" r="35.5" fill="none"/>
      </g>
    </g>
  </g>
</svg>
